<svg display="none" xmlns="http://www.w3.org/2000/svg">
    <symbol id="hidePassword" viewBox="0 0 24 24">
        <path d="M12 7c2.76 0 5 2.24 5 5 0 .65-.13 1.26-.36 1.83l2.92 2.92c1.51-1.26 2.7-2.89 3.43-4.75-1.73-4.39-6-7.5-11-7.5-1.4 0-2.74.25-3.98.7l2.16 2.16C10.74 7.13 11.35 7 12 7zM2 4.27l2.28 2.28.46.46C3.08 8.3 1.78 10.02 1 12c1.73 4.39 6 7.5 11 7.5 1.55 0 3.03-.3 4.38-.84l.42.42L19.73 22 21 20.73 3.27 3 2 4.27zM7.53 9.8l1.55 1.55c-.05.21-.08.43-.08.65 0 1.66 1.34 3 3 3 .22 0 .44-.03.65-.08l1.55 1.55c-.67.33-1.41.53-2.2.53-2.76 0-5-2.24-5-5 0-.79.2-1.53.53-2.2zm4.31-.78l3.15 3.15.02-.16c0-1.66-1.34-3-3-3l-.17.01z" ></path>
    </symbol>
    <symbol id="showPassword" viewBox="0 0 24 24">
        <path d="M12 4.5C7 4.5 2.73 7.61 1 12c1.73 4.39 6 7.5 11 7.5s9.27-3.11 11-7.5c-1.73-4.39-6-7.5-11-7.5zM12 17c-2.76 0-5-2.24-5-5s2.24-5 5-5 5 2.24 5 5-2.24 5-5 5zm0-8c-1.66 0-3 1.34-3 3s1.34 3 3 3 3-1.34 3-3-1.34-3-3-3z"></path>
    </symbol>

    <symbol id="error" viewBox="0 0 24 24">
        <path fillRule="evenodd" clipRule="evenodd" d="M12 20a8 8 0 100-16 8 8 0 000 16zm2.293-4.293L12 13.414l-2.293 2.293-1.414-1.414L10.586 12 8.293 9.707l1.414-1.414L12 10.586l2.293-2.293 1.414 1.414L13.414 12l2.293 2.293-1.414 1.414z"></path>
    </symbol>

    <symbol id="info" viewBox="0 0 24 24">
        <path d="M11 7h2v2h-2zm0 4h2v6h-2zm1-9C6.48 2 2 6.48 2 12s4.48 10 10 10 10-4.48 10-10S17.52 2 12 2zm0 18c-4.41 0-8-3.59-8-8s3.59-8 8-8 8 3.59 8 8-3.59 8-8 8z"></path>
    </symbol>

    <symbol id="check" viewBox="0 0 32 22">
        <path d="M27.761 0L11.4565 13.9061L4.56127 7.14104L0 11.0706L11.1396 22L32 4.22447L27.761 0Z" fill="#6B74B2" />
    </symbol>

    <symbol id="profile" viewBox="0 0 30 40">
        <path d="M30 40H26.6667V31.595C26.6653 30.2883 26.1457 29.0356 25.2217 28.1116C24.2978 27.1877 23.045 26.668 21.7383 26.6667H8.26167C6.955 26.668 5.70223 27.1877 4.77827 28.1116C3.85432 29.0356 3.33466 30.2883 3.33333 31.595V40H0V31.595C0.00264638 29.4047 0.873919 27.3048 2.42271 25.756C3.9715 24.2073 6.07135 23.336 8.26167 23.3333H21.7383C23.9287 23.336 26.0285 24.2073 27.5773 25.756C29.1261 27.3048 29.9974 29.4047 30 31.595V40Z" fill="white"/>
        <path d="M15 20C13.0222 20 11.0888 19.4135 9.4443 18.3147C7.79981 17.2159 6.51808 15.6541 5.7612 13.8268C5.00433 11.9996 4.80629 9.98891 5.19215 8.0491C5.578 6.10929 6.53041 4.32746 7.92893 2.92894C9.32746 1.53041 11.1093 0.578004 13.0491 0.192152C14.9889 -0.193701 16.9996 0.00433288 18.8268 0.761209C20.6541 1.51809 22.2159 2.79981 23.3147 4.4443C24.4135 6.08879 25 8.02219 25 10C24.9974 12.6514 23.9429 15.1934 22.0681 17.0681C20.1934 18.9429 17.6514 19.9974 15 20ZM15 3.33334C13.6815 3.33334 12.3925 3.72433 11.2962 4.45687C10.1999 5.18942 9.34539 6.23061 8.8408 7.44878C8.33622 8.66696 8.2042 10.0074 8.46143 11.3006C8.71867 12.5938 9.3536 13.7817 10.286 14.714C11.2183 15.6464 12.4062 16.2813 13.6994 16.5386C14.9926 16.7958 16.333 16.6638 17.5512 16.1592C18.7694 15.6546 19.8106 14.8001 20.5431 13.7038C21.2757 12.6075 21.6667 11.3185 21.6667 10C21.6667 8.23189 20.9643 6.5362 19.714 5.28596C18.4638 4.03572 16.7681 3.33334 15 3.33334Z" fill="white"/>
    </symbol>

    <symbol id="upload" viewBox="0 0 15 15">
        <g>
            <path d="M13.75 9.54548V12.9546C13.75 13.1354 13.6842 13.3088 13.5669 13.4367C13.4497 13.5645 13.2908 13.6364 13.125 13.6364H1.875C1.70924 13.6364 1.55027 13.5645 1.43306 13.4367C1.31585 13.3088 1.25 13.1354 1.25 12.9546V9.54548H0V12.9546C0 13.497 0.197544 14.0173 0.549175 14.4009C0.900805 14.7845 1.37772 15 1.875 15H13.125C13.6223 15 14.0992 14.7845 14.4508 14.4009C14.8025 14.0173 15 13.497 15 12.9546V9.54548H13.75Z" fill="black"/>
            <path d="M7.47938 7.75441e-06C7.23324 -0.000732426 6.9894 0.0515237 6.76181 0.153781C6.53423 0.256038 6.32738 0.406287 6.15313 0.595914L3.70375 3.26795L4.5875 4.23203L6.85875 1.755L6.875 12.9545H8.125L8.10875 1.76455L10.3706 4.23203L11.2544 3.26795L8.805 0.595914C8.63086 0.406307 8.42412 0.256067 8.19664 0.153808C7.96916 0.0515485 7.72541 -0.000717165 7.47938 7.75441e-06Z" fill="black"/>
        </g>
    </symbol>
</svg>