<svg display="none" xmlns="http://www.w3.org/2000/svg" xmlns:xlink="http://www.w3.org/1999/xlink">
    <symbol id="hidePassword" viewBox="0 0 24 24">
        <path d="M12 7c2.76 0 5 2.24 5 5 0 .65-.13 1.26-.36 1.83l2.92 2.92c1.51-1.26 2.7-2.89 3.43-4.75-1.73-4.39-6-7.5-11-7.5-1.4 0-2.74.25-3.98.7l2.16 2.16C10.74 7.13 11.35 7 12 7zM2 4.27l2.28 2.28.46.46C3.08 8.3 1.78 10.02 1 12c1.73 4.39 6 7.5 11 7.5 1.55 0 3.03-.3 4.38-.84l.42.42L19.73 22 21 20.73 3.27 3 2 4.27zM7.53 9.8l1.55 1.55c-.05.21-.08.43-.08.65 0 1.66 1.34 3 3 3 .22 0 .44-.03.65-.08l1.55 1.55c-.67.33-1.41.53-2.2.53-2.76 0-5-2.24-5-5 0-.79.2-1.53.53-2.2zm4.31-.78l3.15 3.15.02-.16c0-1.66-1.34-3-3-3l-.17.01z" ></path>
    </symbol>
    <symbol id="showPassword" viewBox="0 0 24 24">
        <path d="M12 4.5C7 4.5 2.73 7.61 1 12c1.73 4.39 6 7.5 11 7.5s9.27-3.11 11-7.5c-1.73-4.39-6-7.5-11-7.5zM12 17c-2.76 0-5-2.24-5-5s2.24-5 5-5 5 2.24 5 5-2.24 5-5 5zm0-8c-1.66 0-3 1.34-3 3s1.34 3 3 3 3-1.34 3-3-1.34-3-3-3z"></path>
    </symbol>

    <symbol id="error" viewBox="0 0 24 24">
        <path fillRule="evenodd" clipRule="evenodd" d="M12 20a8 8 0 100-16 8 8 0 000 16zm2.293-4.293L12 13.414l-2.293 2.293-1.414-1.414L10.586 12 8.293 9.707l1.414-1.414L12 10.586l2.293-2.293 1.414 1.414L13.414 12l2.293 2.293-1.414 1.414z"></path>
    </symbol>

    <symbol id="info" viewBox="0 0 24 24">
        <path d="M11 7h2v2h-2zm0 4h2v6h-2zm1-9C6.48 2 2 6.48 2 12s4.48 10 10 10 10-4.48 10-10S17.52 2 12 2zm0 18c-4.41 0-8-3.59-8-8s3.59-8 8-8 8 3.59 8 8-3.59 8-8 8z"></path>
    </symbol>

    <symbol id="check" viewBox="0 0 32 22">
        <path d="M27.761 0L11.4565 13.9061L4.56127 7.14104L0 11.0706L11.1396 22L32 4.22447L27.761 0Z" fill="#6B74B2"></path>
    </symbol>

    <symbol id="upload" viewBox="0 0 15 15">
        <g>
            <path d="M13.75 9.54548V12.9546C13.75 13.1354 13.6842 13.3088 13.5669 13.4367C13.4497 13.5645 13.2908 13.6364 13.125 13.6364H1.875C1.70924 13.6364 1.55027 13.5645 1.43306 13.4367C1.31585 13.3088 1.25 13.1354 1.25 12.9546V9.54548H0V12.9546C0 13.497 0.197544 14.0173 0.549175 14.4009C0.900805 14.7845 1.37772 15 1.875 15H13.125C13.6223 15 14.0992 14.7845 14.4508 14.4009C14.8025 14.0173 15 13.497 15 12.9546V9.54548H13.75Z" fill="black"></path>
            <path d="M7.47938 7.75441e-06C7.23324 -0.000732426 6.9894 0.0515237 6.76181 0.153781C6.53423 0.256038 6.32738 0.406287 6.15313 0.595914L3.70375 3.26795L4.5875 4.23203L6.85875 1.755L6.875 12.9545H8.125L8.10875 1.76455L10.3706 4.23203L11.2544 3.26795L8.805 0.595914C8.63086 0.406307 8.42412 0.256067 8.19664 0.153808C7.96916 0.0515485 7.72541 -0.000717165 7.47938 7.75441e-06Z" fill="black"></path>
        </g>
    </symbol>

    <symbol id="download" viewBox="0 0 24 24">
        <path d="M6 21H18M12 3V17M12 17L17 12M12 17L7 12" stroke="#000000" stroke-width="2" stroke-linecap="round" stroke-linejoin="round"></path>
    </symbol>

    <symbol id="vk" viewBox="0 0 24 24">
        <path d="M3.39994 3.4L3.04469 3.0481L3.0489 3.04395L3.39994 3.4ZM3.39994 20.6L3.04804 20.9552L3.04389 20.951L3.39994 20.6ZM20.5999 20.6L20.9552 20.9519L20.951 20.9561L20.5999 20.6ZM20.5999 3.4L20.9518 3.04475L20.956 3.04896L20.5999 3.4ZM5.37327 8.08667L4.87337 8.09692C4.87062 7.96256 4.92206 7.83275 5.01611 7.73676C5.11016 7.64076 5.23888 7.58667 5.37327 7.58667V8.08667ZM12.9066 16.4067H13.4066C13.4066 16.6828 13.1827 16.9067 12.9066 16.9067V16.4067ZM12.9066 13.4333H12.4066C12.4066 13.2921 12.4663 13.1575 12.571 13.0627C12.6757 12.9679 12.8156 12.9218 12.9562 12.9358L12.9066 13.4333ZM16.3533 16.4067V16.9067C16.1359 16.9067 15.9435 16.7663 15.8772 16.5593L16.3533 16.4067ZM18.7199 16.4067L19.2026 16.2762C19.2432 16.4264 19.2116 16.587 19.117 16.7106C19.0223 16.8342 18.8756 16.9067 18.7199 16.9067V16.4067ZM15.2999 12.2333L15.0771 12.681C14.9142 12.5998 14.8081 12.4365 14.8004 12.2546C14.7926 12.0727 14.8844 11.901 15.0399 11.8063L15.2999 12.2333ZM17.1928 10.461L17.6019 10.7486L17.1928 10.461ZM18.2199 8.08V7.58C18.3701 7.58 18.5123 7.6475 18.6073 7.76385C18.7023 7.88019 18.7399 8.03306 18.7098 8.18019L18.2199 8.08ZM16.0733 8.08L15.5921 7.94418C15.6529 7.72876 15.8494 7.58 16.0733 7.58V8.08ZM12.9066 11.3733L12.9596 11.8705C12.8186 11.8856 12.6778 11.84 12.5723 11.7452C12.4668 11.6503 12.4066 11.5152 12.4066 11.3733H12.9066ZM12.9066 8.08667V7.58667C13.1827 7.58667 13.4066 7.81053 13.4066 8.08667H12.9066ZM10.7533 8.08667H10.2533C10.2533 7.81053 10.4771 7.58667 10.7533 7.58667V8.08667ZM10.7533 13.8467H11.2533C11.2533 14.0006 11.1823 14.146 11.061 14.2408C10.9396 14.3355 10.7814 14.3691 10.632 14.3317L10.7533 13.8467ZM7.6666 8.08667V7.58667C7.939 7.58667 8.16127 7.80471 8.16651 8.07705L7.6666 8.08667ZM1.49994 11.6C1.49994 9.35073 1.49889 7.61455 1.67936 6.26617C1.86175 4.90342 2.23763 3.8629 3.04471 3.04813L3.75516 3.75187C3.16225 4.35043 2.83813 5.14658 2.67052 6.39883C2.50099 7.66545 2.49994 9.3226 2.49994 11.6H1.49994ZM1.49994 12.4V11.6H2.49994V12.4H1.49994ZM3.04389 20.951C2.23759 20.1332 1.86176 19.0917 1.67936 17.7288C1.49889 16.3805 1.49994 14.646 1.49994 12.4H2.49994C2.49994 14.674 2.50099 16.3295 2.67052 17.5962C2.83811 18.8483 3.16229 19.6468 3.75599 20.249L3.04389 20.951ZM11.5999 22.5C9.35067 22.5 7.61449 22.5011 6.26611 22.3206C4.90335 22.1382 3.86284 21.7623 3.04807 20.9552L3.75181 20.2448C4.35037 20.8377 5.14652 21.1618 6.39877 21.3294C7.66539 21.4989 9.32254 21.5 11.5999 21.5V22.5ZM12.3999 22.5H11.5999V21.5H12.3999V22.5ZM20.951 20.9561C20.1332 21.7624 19.0916 22.1382 17.7288 22.3206C16.3804 22.5011 14.6459 22.5 12.3999 22.5V21.5C14.674 21.5 16.3295 21.4989 17.5961 21.3294C18.8483 21.1618 19.6467 20.8376 20.2489 20.2439L20.951 20.9561ZM22.4999 12.4C22.4999 14.6493 22.501 16.3855 22.3205 17.7338C22.1381 19.0966 21.7623 20.1371 20.9552 20.9519L20.2447 20.2481C20.8376 19.6496 21.1618 18.8534 21.3294 17.6012C21.4989 16.3345 21.4999 14.6774 21.4999 12.4H22.4999ZM22.4999 11.6V12.4H21.4999V11.6H22.4999ZM20.956 3.04896C21.7623 3.86678 22.1381 4.90834 22.3205 6.27117C22.501 7.61954 22.4999 9.35404 22.4999 11.6H21.4999C21.4999 9.32596 21.4989 7.67046 21.3294 6.40383C21.1618 5.15166 20.8376 4.35322 20.2439 3.75104L20.956 3.04896ZM12.3999 1.5C14.6492 1.5 16.3854 1.49895 17.7338 1.67942C19.0965 1.86181 20.137 2.23769 20.9518 3.04478L20.2481 3.75522C19.6495 3.16231 18.8534 2.83819 17.6011 2.67058C16.3345 2.50105 14.6773 2.5 12.3999 2.5V1.5ZM11.5999 1.5H12.3999V2.5H11.5999V1.5ZM3.0489 3.04395C3.86672 2.23765 4.90828 1.86183 6.27111 1.67942C7.61948 1.49895 9.35398 1.5 11.5999 1.5V2.5C9.3259 2.5 7.67039 2.50105 6.40377 2.67058C5.1516 2.83817 4.35316 3.16235 3.75098 3.75605L3.0489 3.04395ZM12.6399 16.9067C10.2377 16.9067 8.30046 16.0798 6.95797 14.5232C5.62543 12.9782 4.92825 10.7719 4.87337 8.09692L5.87317 8.07641C5.92496 10.6014 6.5811 12.5551 7.71523 13.8701C8.83941 15.1735 10.4822 15.9067 12.6399 15.9067V16.9067ZM12.6466 16.9067H12.6399V15.9067H12.6466V16.9067ZM12.9066 16.9067H12.6466V15.9067H12.9066V16.9067ZM13.4066 13.4333V16.4067H12.4066V13.4333H13.4066ZM15.8772 16.5593C15.4192 15.1312 14.2955 14.0741 12.857 13.9309L12.9562 12.9358C14.8643 13.1259 16.274 14.5221 16.8294 16.254L15.8772 16.5593ZM18.7199 16.9067H16.3533V15.9067H18.7199V16.9067ZM17.8441 13.6364C18.4784 14.4104 18.9414 15.3101 19.2026 16.2762L18.2373 16.5372C18.013 15.7076 17.6154 14.9349 17.0706 14.2703L17.8441 13.6364ZM15.5227 11.7857C16.4186 12.2316 17.2098 12.8624 17.8441 13.6364L17.0706 14.2703C16.5259 13.6056 15.8465 13.0639 15.0771 12.681L15.5227 11.7857ZM17.6019 10.7486C17.0599 11.5195 16.3648 12.1703 15.56 12.6604L15.0399 11.8063C15.7273 11.3877 16.3209 10.8318 16.7838 10.1735L17.6019 10.7486ZM18.7098 8.18019C18.521 9.10338 18.1438 9.97773 17.6019 10.7486L16.7838 10.1735C17.2467 9.51507 17.5688 8.76831 17.7301 7.97982L18.7098 8.18019ZM16.0733 7.58H18.2199V8.58H16.0733V7.58ZM12.8536 10.8762C13.3501 10.8232 13.9226 10.4996 14.4449 9.94981C14.9606 9.40692 15.3817 8.68939 15.5921 7.94418L16.5545 8.21582C16.2981 9.12394 15.7926 9.98308 15.17 10.6385C14.5539 11.287 13.7765 11.7834 12.9596 11.8705L12.8536 10.8762ZM13.4066 8.08667V11.3733H12.4066V8.08667H13.4066ZM10.7533 7.58667H12.9066V8.58667H10.7533V7.58667ZM10.2533 13.8467V8.08667H11.2533V13.8467H10.2533ZM8.16651 8.07705C8.23719 11.7526 9.83535 13.1018 10.8745 13.3616L10.632 14.3317C9.00453 13.9249 7.24268 12.0474 7.1667 8.09628L8.16651 8.07705ZM5.37327 7.58667H7.6666V8.58667H5.37327V7.58667Z" fill="white"></path>
    </symbol>

    <symbol id="telegram" viewBox="0 0 24 24">
        <path fill="transparent" fill-rule="evenodd" clip-rule="evenodd" d="M21.997 12C21.997 17.5228 17.5198 22 11.997 22C6.47415 22 1.99699 17.5228 1.99699 12C1.99699 6.47715 6.47415 2 11.997 2C17.5198 2 21.997 6.47715 21.997 12ZM12.3553 9.38244C11.3827 9.787 9.43876 10.6243 6.52356 11.8944C6.05018 12.0827 5.8022 12.2669 5.77962 12.4469C5.74147 12.7513 6.12258 12.8711 6.64155 13.0343C6.71214 13.0565 6.78528 13.0795 6.86026 13.1038C7.37085 13.2698 8.05767 13.464 8.41472 13.4717C8.7386 13.4787 9.10009 13.3452 9.49918 13.0711C12.2229 11.2325 13.629 10.3032 13.7172 10.2831C13.7795 10.269 13.8658 10.2512 13.9243 10.3032C13.9828 10.3552 13.977 10.4536 13.9708 10.48C13.9331 10.641 12.4371 12.0318 11.6629 12.7515C11.4216 12.9759 11.2504 13.135 11.2154 13.1714C11.137 13.2528 11.0571 13.3298 10.9803 13.4038C10.506 13.8611 10.1502 14.204 11 14.764C11.4083 15.0331 11.7351 15.2556 12.0611 15.4776C12.4171 15.7201 12.7722 15.9619 13.2317 16.2631C13.3487 16.3398 13.4605 16.4195 13.5694 16.4971C13.9837 16.7925 14.3559 17.0579 14.8158 17.0155C15.083 16.991 15.359 16.7397 15.4992 15.9903C15.8305 14.2193 16.4817 10.382 16.6322 8.80081C16.6454 8.66228 16.6288 8.48498 16.6154 8.40715C16.6021 8.32932 16.5743 8.21842 16.4731 8.13633C16.3533 8.03911 16.1683 8.01861 16.0856 8.02C15.7095 8.0267 15.1324 8.22735 12.3553 9.38244Z" stroke="white" stroke-linejoin="round"></path>
    </symbol>

    <symbol id="uparrow" viewBox="0 0 330 330">
        <path id="uparrow" d="M100.606,100.606L150,51.212V315c0,8.284,6.716,15,15,15c8.284,0,15-6.716,15-15V51.212l49.394,49.394 C232.322,103.535,236.161,105,240,105c3.839,0,7.678-1.465,10.606-4.394c5.858-5.857,5.858-15.355,0-21.213l-75-75 c-5.857-5.858-15.355-5.858-21.213,0l-75,75c-5.858,5.857-5.858,15.355,0,21.213C85.251,106.463,94.749,106.463,100.606,100.606z"></path>
    </symbol>

    <symbol id="downarrow" viewBox="0 0 24 24">
        <path fill-rule="evenodd" clip-rule="evenodd" d="M4.29289 8.29289C4.68342 7.90237 5.31658 7.90237 5.70711 8.29289L12 14.5858L18.2929 8.29289C18.6834 7.90237 19.3166 7.90237 19.7071 8.29289C20.0976 8.68342 20.0976 9.31658 19.7071 9.70711L12.7071 16.7071C12.3166 17.0976 11.6834 17.0976 11.2929 16.7071L4.29289 9.70711C3.90237 9.31658 3.90237 8.68342 4.29289 8.29289Z"></path>
    </symbol>

    <symbol id="logout" viewBox="0 0 24 24" fill="none">
        <path d="M12 15L15 12M15 12L12 9M15 12H4M4 7.24802V7.2002C4 6.08009 4 5.51962 4.21799 5.0918C4.40973 4.71547 4.71547 4.40973 5.0918 4.21799C5.51962 4 6.08009 4 7.2002 4H16.8002C17.9203 4 18.4796 4 18.9074 4.21799C19.2837 4.40973 19.5905 4.71547 19.7822 5.0918C20 5.5192 20 6.07899 20 7.19691V16.8036C20 17.9215 20 18.4805 19.7822 18.9079C19.5905 19.2842 19.2837 19.5905 18.9074 19.7822C18.48 20 17.921 20 16.8031 20H7.19691C6.07899 20 5.5192 20 5.0918 19.7822C4.71547 19.5905 4.40973 19.2839 4.21799 18.9076C4 18.4798 4 17.9201 4 16.8V16.75" stroke-width="2" stroke-linecap="round" stroke-linejoin="round"></path>
    </symbol>
    
    <symbol id="users" viewBox="0 0 24 24" fill="none">
        <path d="M21 19.9999C21 18.2583 19.3304 16.7767 17 16.2275M15 20C15 17.7909 12.3137 16 9 16C5.68629 16 3 17.7909 3 20M15 13C17.2091 13 19 11.2091 19 9C19 6.79086 17.2091 5 15 5M9 13C6.79086 13 5 11.2091 5 9C5 6.79086 6.79086 5 9 5C11.2091 5 13 6.79086 13 9C13 11.2091 11.2091 13 9 13Z" stroke-width="2" stroke-linecap="round" stroke-linejoin="round"></path>
    </symbol>
    
    <symbol id="book" viewBox="0 0 24 24" fill="none">
        <path d="M5 19.5002V6.2002C5 5.08009 5 4.51962 5.21799 4.0918C5.40973 3.71547 5.71547 3.40973 6.0918 3.21799C6.51962 3 7.08009 3 8.2002 3H17.4002C17.9602 3 18.2407 3 18.4546 3.10899C18.6427 3.20487 18.7948 3.35774 18.8906 3.5459C18.9996 3.75981 19 4.04005 19 4.6001V16.4001C19 16.9601 18.9996 17.2398 18.8906 17.4537C18.7948 17.6419 18.6429 17.7952 18.4548 17.8911C18.2411 18 17.961 18 17.402 18H7.25C6.00736 18 5 19.0074 5 20.25C5 20.6642 5.33579 21 5.75 21H16.402C16.961 21 17.2411 21 17.4548 20.8911C17.6429 20.7952 17.7948 20.642 17.8906 20.4538C17.9996 20.2399 18 19.9601 18 19.4V18"  stroke-width="2" stroke-linecap="round" stroke-linejoin="round"></path>
    </symbol>

    <symbol id="shield" viewBox="0 0 24 24" fill="none">
        <path d="M12.9258 20.6314C15.0319 19.6781 20 16.7333 20 10.165V6.19691C20 5.07899 20 4.5192 19.7822 4.0918C19.5905 3.71547 19.2837 3.40973 18.9074 3.21799C18.4796 3 17.9203 3 16.8002 3H7.2002C6.08009 3 5.51962 3 5.0918 3.21799C4.71547 3.40973 4.40973 3.71547 4.21799 4.0918C4 4.51962 4 5.08009 4 6.2002V10.165C4 16.7333 8.9678 19.6781 11.074 20.6314C11.2972 20.7325 11.4094 20.7829 11.6621 20.8263C11.8215 20.8537 12.1795 20.8537 12.3389 20.8263C12.5907 20.7831 12.7017 20.7328 12.9235 20.6324L12.9258 20.6314Z" stroke-width="2" stroke-linecap="round" stroke-linejoin="round"></path>
    </symbol>

    <symbol id="arrow_SM" viewBox="0 0 24 24" fill="none">
        <path d="M12 7V17M12 17L16 13M12 17L8 13" stroke="#000000" stroke-width="2" stroke-linecap="round" stroke-linejoin="round"></path>
    </symbol>

    <symbol id="burger"  viewBox="0 0 24 24" fill="none">
        <path d="M5 17H19M5 12H19M5 7H19" stroke="#000000" stroke-width="2" stroke-linecap="round" stroke-linejoin="round"></path>
    </symbol>

    <symbol id="filter" viewBox="0 0 24 24" fill="none">
        <path d="M20 5.6001C20 5.04005 19.9996 4.75981 19.8906 4.5459C19.7948 4.35774 19.6423 4.20487 19.4542 4.10899C19.2403 4 18.9597 4 18.3996 4H5.59961C5.03956 4 4.75981 4 4.5459 4.10899C4.35774 4.20487 4.20487 4.35774 4.10899 4.5459C4 4.75981 4 5.04005 4 5.6001V6.33736C4 6.58195 4 6.70433 4.02763 6.81942C4.05213 6.92146 4.09263 7.01893 4.14746 7.1084C4.20928 7.20928 4.29591 7.29591 4.46875 7.46875L9.53149 12.5315C9.70443 12.7044 9.79044 12.7904 9.85228 12.8914C9.90711 12.9808 9.94816 13.0786 9.97266 13.1807C10 13.2946 10 13.4155 10 13.6552V18.411C10 19.2682 10 19.6971 10.1805 19.9552C10.3382 20.1806 10.5814 20.331 10.8535 20.3712C11.1651 20.4172 11.5487 20.2257 12.3154 19.8424L13.1154 19.4424C13.4365 19.2819 13.5966 19.2013 13.7139 19.0815C13.8176 18.9756 13.897 18.8485 13.9453 18.7084C14 18.5499 14 18.37 14 18.011V13.6626C14 13.418 14 13.2958 14.0276 13.1807C14.0521 13.0786 14.0926 12.9808 14.1475 12.8914C14.2089 12.7911 14.2947 12.7053 14.4653 12.5347L14.4688 12.5315L19.5315 7.46875C19.7044 7.2958 19.7904 7.20932 19.8523 7.1084C19.9071 7.01893 19.9482 6.92146 19.9727 6.81942C20 6.70551 20 6.58444 20 6.3448V5.6001Z" stroke="#000000" stroke-width="2" stroke-linecap="round" stroke-linejoin="round"></path>
    </symbol>

    <symbol id="close_md" viewBox="0 0 24 24" fill="none">
       <path d="M18 18L12 12M12 12L6 6M12 12L18 6M12 12L6 18" stroke="#000000" stroke-width="2" stroke-linecap="round" stroke-linejoin="round"></path>
    </symbol>

    <symbol id="expand" viewBox="0 0 24 24" fill="none">
        <path d="M10 19H5V14M14 5H19V10" stroke-width="2" stroke-linecap="round" stroke-linejoin="round"></path>
    </symbol>

    <symbol id="trash" viewBox="0 0 24 24" fill="none">
        <path d="M14 10V17M10 10V17M6 6V17.8C6 18.9201 6 19.4798 6.21799 19.9076C6.40973 20.2839 6.71547 20.5905 7.0918 20.7822C7.5192 21 8.07899 21 9.19691 21H14.8031C15.921 21 16.48 21 16.9074 20.7822C17.2837 20.5905 17.5905 20.2839 17.7822 19.9076C18 19.4802 18 18.921 18 17.8031V6M6 6H8M6 6H4M8 6H16M8 6C8 5.06812 8 4.60241 8.15224 4.23486C8.35523 3.74481 8.74432 3.35523 9.23438 3.15224C9.60192 3 10.0681 3 11 3H13C13.9319 3 14.3978 3 14.7654 3.15224C15.2554 3.35523 15.6447 3.74481 15.8477 4.23486C15.9999 4.6024 16 5.06812 16 6M16 6H18M18 6H20" stroke-width="2" stroke-linecap="round" stroke-linejoin="round"></path>
    </symbol>

    <symbol id="other" viewBox="0 0 24 24" fill="none">
        <path d="M11.2348 2.37392C10.8672 2.52616 10.5377 2.85565 9.8788 3.51457C9.22003 4.17335 8.8904 4.50298 8.73818 4.87047C8.53519 5.36053 8.53519 5.91121 8.73818 6.40126C8.89042 6.76881 9.21989 7.09828 9.87883 7.75722C10.5374 8.41578 10.8673 8.74568 11.2347 8.89788C11.7248 9.10086 12.2755 9.10086 12.7655 8.89787C13.1331 8.74563 13.4625 8.41616 14.1215 7.75722C14.7804 7.09828 15.1089 6.76881 15.2612 6.40126C15.4641 5.91121 15.4641 5.36053 15.2612 4.87047C15.1089 4.50293 14.7804 4.17351 14.1215 3.51457C13.4625 2.85564 13.1331 2.52616 12.7655 2.37392C12.2755 2.17093 11.7248 2.17093 11.2348 2.37392Z" stroke-width="2" stroke-linecap="round" stroke-linejoin="round"></path>
        <path d="M4.8705 8.73769C4.50296 8.88993 4.17348 9.21941 3.51455 9.87834C2.85579 10.5371 2.52614 10.8668 2.37392 11.2342C2.17093 11.7243 2.17093 12.275 2.37392 12.765C2.52616 13.1326 2.85564 13.4621 3.51457 14.121C4.17314 14.7796 4.50303 15.1094 4.87047 15.2616C5.36053 15.4646 5.91121 15.4646 6.40126 15.2616C6.76881 15.1094 7.09828 14.7799 7.75722 14.121C8.41616 13.4621 8.74466 13.1326 8.8969 12.765C9.09989 12.275 9.09989 11.7243 8.8969 11.2342C8.74466 10.8667 8.41616 10.5373 7.75722 9.87834C7.09828 9.2194 6.76881 8.88993 6.40126 8.73769C5.91121 8.5347 5.36056 8.5347 4.8705 8.73769Z" stroke-width="2" stroke-linecap="round" stroke-linejoin="round"></path>
        <path d="M16.2431 9.87834C15.5843 10.5371 15.2547 10.8667 15.1024 11.2342C14.8994 11.7243 14.8994 12.275 15.1024 12.765C15.2547 13.1326 15.5842 13.462 16.2431 14.121C16.9016 14.7795 17.2316 15.1094 17.599 15.2616C18.089 15.4646 18.6397 15.4646 19.1298 15.2616C19.4973 15.1094 19.8268 14.7799 20.4857 14.121C21.1447 13.4621 21.4732 13.1326 21.6254 12.765C21.8284 12.275 21.8284 11.7243 21.6254 11.2342C21.4732 10.8667 21.1447 10.5373 20.4857 9.87834C19.8268 9.21941 19.4973 8.88993 19.1298 8.73769C18.6397 8.5347 18.0891 8.5347 17.599 8.73769C17.2315 8.88993 16.902 9.21941 16.2431 9.87834Z" stroke-width="2" stroke-linecap="round" stroke-linejoin="round"></path>
        <path d="M11.2348 15.1019C10.8672 15.2542 10.5377 15.5837 9.8788 16.2426C9.22004 16.9014 8.8904 17.231 8.73818 17.5985C8.53519 18.0886 8.53519 18.6392 8.73818 19.1293C8.89042 19.4968 9.21989 19.8263 9.87883 20.4852C10.5374 21.1438 10.8673 21.4737 11.2347 21.6259C11.7248 21.8289 12.2755 21.8289 12.7655 21.6259C13.1331 21.4737 13.4625 21.1442 14.1215 20.4852C14.7804 19.8263 15.1089 19.4968 15.2612 19.1293C15.4641 18.6392 15.4641 18.0886 15.2612 17.5985C15.1089 17.231 14.7804 16.9015 14.1215 16.2426C13.4625 15.5837 13.1331 15.2542 12.7655 15.1019C12.2755 14.899 11.7248 14.899 11.2348 15.1019Z" stroke-width="2" stroke-linecap="round" stroke-linejoin="round"></path>
    </symbol>
</svg>